<svg id="Layer_1" data-name="Layer 1" xmlns="http://www.w3.org/2000/svg" xmlns:xlink="http://www.w3.org/1999/xlink" viewBox="0 0 500.02 663.82"><defs><style>.cls-1{fill:url(#linear-gradient);}.cls-2{fill:url(#linear-gradient-2);}</style><linearGradient id="linear-gradient" x1="289.99" y1="622.44" x2="790.01" y2="622.44" gradientUnits="userSpaceOnUse"><stop offset="0" stop-color="#fc8622"/><stop offset="0.36" stop-color="#ea741e"/><stop offset="1" stop-color="#c24914"/></linearGradient><linearGradient id="linear-gradient-2" x1="465.28" y1="456.22" x2="622.5" y2="456.22" xlink:href="#linear-gradient"/></defs><path class="cls-1" d="M749.09,479.63c-43.28-64.72-104.8-89.76-127.18-97.67l.52,20.21c25.91,10.59,74.53,36.23,109.12,89,.68,1,1.29,2.08,2,3.12L681.6,523.6a186.63,186.63,0,0,0-64.37-54.66A181.65,181.65,0,0,0,580.47,455v20.24c7.12,1.92,72.9,21,99.67,89C706,629.92,674.05,686.81,670,693.73l18,15c4.47-7.53,43.08-75.23,11.6-152.32a162.72,162.72,0,0,0-7-14.92l51.28-29c44.13,86.54,17,172.14,13.49,182.32-27,78.32-92.86,136.57-172,152a219.32,219.32,0,0,1-31,3.77V785.89c31.24-3.27,72.76-17.74,121.41-62.18l-18-15c-49.69,47.12-90.69,56.92-118.48,57-1.28,0-2.3,0-2.73,0-28.86-.57-68.44-11.52-112.62-57l-18,15c49.57,48.49,94,61.53,127.4,62.86v64.15c-75.91-3.18-147.81-44.88-188.87-112.94-2.88-4.79-69.35-117.48-7.52-229.22l56.06,31.69a166.17,166.17,0,0,0-7.67,16.15c-31.48,77.09,7.13,144.79,11.6,152.32l18-15c-4-6.9-36.06-64-10.13-129.47C432.5,494.61,501.4,476.5,508,474.89v-21c-6.05,1.32-65.31,15.31-103.71,68.53l-56.13-31.72c56.46-81.81,151.38-95.5,162.59-96.84q.12-10.45.25-20.91c-12.38,1.33-129.45,16-190.47,122.18-70.26,122.31,2.21,247,6.11,253.47,46.59,77.22,129.67,123.29,216.26,123.29a242.6,242.6,0,0,0,46.55-4.5C675.86,850.54,747.81,787,777.22,701.65,781,690.81,816.76,580.8,749.09,479.63Z" transform="translate(-289.99 -208.09)"/><path class="cls-2" d="M530.87,550.68c-5.23,1.2-41.39,10.08-57.81,44.43-8.46,17.7-6.22,34.25-7,42.76,0,0-.75,47.52-.75,66.2h20.24V638.7c.14-5.74.52-10.6.89-14.35,1.21-12.1,3-17.46,4.71-21.65.26-.63.51-1.18.77-1.7,6.18-12.36,20.13-25.1,38.72-29L529,704.1l21,.25,1.64-132.68c30.59,10.67,40.9,28.06,44.29,35,2.64,5.41,5,12.67,6.38,41.34.67,14.54,1,33.58,0,56H622.5V646.48c-1.56-24.57-2.34-36.85-7.55-48.56-12.6-28.34-43.4-41.54-63.09-47.47l1.08-87.55h0c10.78-11.2,50.24-54.84,47.92-115.39-1.68-43.73-24-78-37.35-97a296.35,296.35,0,0,0-36-42.38q2.24,127.1,4.48,254.2Z" transform="translate(-289.99 -208.09)"/></svg>